<?xml version="1.0" encoding="UTF-8"?>
<!DOCTYPE svg PUBLIC "-//W3C//DTD SVG 1.1//EN" "http://www.w3.org/Graphics/SVG/1.1/DTD/svg11.dtd">
<!-- Creator: CorelDRAW X7 -->
<svg xmlns="http://www.w3.org/2000/svg" xml:space="preserve" width="3.30666in" height="1.06666in" version="1.1" style="shape-rendering:geometricPrecision; text-rendering:geometricPrecision; image-rendering:optimizeQuality; fill-rule:evenodd; clip-rule:evenodd"
viewBox="0 0 3307 1067"
 xmlns:xlink="http://www.w3.org/1999/xlink">
 <defs>
  <style type="text/css">
   <![CDATA[
    .fil0 {fill:#EEE5D9}
    .fil1 {fill:url(#id0)}
    .fil4 {fill:url(#id1)}
    .fil2 {fill:url(#id2)}
    .fil3 {fill:url(#id3)}
   ]]>
  </style>
  <linearGradient id="id0" gradientUnits="userSpaceOnUse" x1="-791.571" y1="556.665" x2="2244.9" y2="556.665">
   <stop offset="0" style="stop-opacity:1; stop-color:#C7AB83"/>
   <stop offset="0.458824" style="stop-opacity:1; stop-color:#E3D5C1"/>
   <stop offset="0.321569" style="stop-opacity:1; stop-color:#E3D5C1"/>
   <stop offset="1" style="stop-opacity:1; stop-color:white"/>
  </linearGradient>
  <linearGradient id="id1" gradientUnits="userSpaceOnUse" x1="2687.89" y1="950.661" x2="4153.66" y2="950.661">
   <stop offset="0" style="stop-opacity:1; stop-color:#FFFCFC"/>
   <stop offset="0.490196" style="stop-opacity:1; stop-color:#E6D6C3"/>
   <stop offset="0.588235" style="stop-opacity:1; stop-color:#E6D6C3"/>
   <stop offset="1" style="stop-opacity:1; stop-color:#CCB089"/>
  </linearGradient>
  <linearGradient id="id2" gradientUnits="userSpaceOnUse" x1="3282.65" y1="521.118" x2="3607.89" y2="1207.24">
   <stop offset="0" style="stop-opacity:1; stop-color:white"/>
   <stop offset="0.568627" style="stop-opacity:1; stop-color:#E1D3C0"/>
   <stop offset="1" style="stop-opacity:1; stop-color:#C2A680"/>
  </linearGradient>
  <linearGradient id="id3" gradientUnits="userSpaceOnUse" x1="2665.85" y1="978.28" x2="3678.77" y2="384.5">
   <stop offset="0" style="stop-opacity:1; stop-color:white"/>
   <stop offset="0.521569" style="stop-opacity:1; stop-color:#DFD2BF"/>
   <stop offset="0.54902" style="stop-opacity:1; stop-color:#DFD2BF"/>
   <stop offset="1" style="stop-opacity:1; stop-color:#BFA47E"/>
  </linearGradient>
 </defs>
 <rect class="fil0" width="3307" height="1067"/>
 <g id="Layer_x0020_1">
  <metadata id="CorelCorpID_0Corel-Layer"/>
  <g id="_816282720">
   <path class="fil1" d="M-739 114c317,-56 1457,-50 953,147 350,177 577,-57 867,33 200,-56 140,297 240,174 990,-200 1190,420 573,80 83,91 165,182 247,273 30,103 -490,203 -407,53 -191,-33 -803,47 -573,-100 -290,14 -543,227 -607,120 -306,0 -1353,307 -920,0l-426 -100 53 -680 0 0z"/>
   <path class="fil2" d="M3901 562c51,77 -112,274 -363,441 -252,167 -497,240 -548,164 -51,-77 112,-274 364,-441 251,-167 496,-240 547,-164l0 0z"/>
   <path class="fil3" d="M3867 417c55,145 -211,380 -595,526 -384,146 -739,148 -794,3 -55,-145 211,-380 595,-526 383,-146 739,-147 794,-3z"/>
   <ellipse class="fil4" cx="3421" cy="951" rx="733" ry="230"/>
  </g>
 </g>
</svg>
