<?xml version="1.0" encoding="UTF-8"?>
<!DOCTYPE svg PUBLIC "-//W3C//DTD SVG 1.1//EN" "http://www.w3.org/Graphics/SVG/1.1/DTD/svg11.dtd">
<!-- Creator: CorelDRAW X7 -->
<svg xmlns="http://www.w3.org/2000/svg" xml:space="preserve" width="3.30666in" height="1.06666in" version="1.1" style="shape-rendering:geometricPrecision; text-rendering:geometricPrecision; image-rendering:optimizeQuality; fill-rule:evenodd; clip-rule:evenodd"
viewBox="0 0 3307 1067"
 xmlns:xlink="http://www.w3.org/1999/xlink">
 <defs>
  <style type="text/css">
   <![CDATA[
    .fil0 {fill:#EEE5D9}
    .fil1 {fill:url(#id0)}
    .fil2 {fill:url(#id1)}
   ]]>
  </style>
  <linearGradient id="id0" gradientUnits="userSpaceOnUse" x1="-1473.7" y1="638.945" x2="1000.28" y2="638.945">
   <stop offset="0" style="stop-opacity:1; stop-color:#D9CAB4"/>
   <stop offset="0.431373" style="stop-opacity:1; stop-color:#CFB99B"/>
   <stop offset="0.701961" style="stop-opacity:1; stop-color:#CFB99B"/>
   <stop offset="1" style="stop-opacity:1; stop-color:#C4A881"/>
  </linearGradient>
  <linearGradient id="id1" gradientUnits="userSpaceOnUse" x1="-436.217" y1="904.449" x2="154.059" y2="420.165">
   <stop offset="0" style="stop-opacity:1; stop-color:white"/>
   <stop offset="0.701961" style="stop-opacity:1; stop-color:#E2D4C0"/>
   <stop offset="0.709804" style="stop-opacity:1; stop-color:#E2D4C0"/>
   <stop offset="1" style="stop-opacity:1; stop-color:#C4A880"/>
  </linearGradient>
 </defs>
 <g id="Layer_x0020_1">
  <metadata id="CorelCorpID_0Corel-Layer"/>
  <rect class="fil0" x="-2" y="2" width="3306" height="1067"/>
  <path class="fil1" d="M-670 470c149,-5 260,94 400,-13 668,-513 970,-30 970,-30 0,0 684,268 -12,379 -96,16 -118,40 -251,47 -498,27 -444,204 -444,204l-1009 -209c-127,-55 -215,-158 -358,-175 -115,-15 -118,-143 -72,-258 657,-176 449,110 776,55l0 0z"/>
  <path class="fil2" d="M-269 425c246,69 816,-8 738,211 -132,299 -550,101 -669,271 -235,40 -372,-134 -558,-200 107,-237 293,-333 489,-282l0 0z"/>
 </g>
</svg>
