<?xml version="1.0" encoding="UTF-8"?>
<!DOCTYPE svg PUBLIC "-//W3C//DTD SVG 1.1//EN" "http://www.w3.org/Graphics/SVG/1.1/DTD/svg11.dtd">
<!-- Creator: CorelDRAW X7 -->
<svg xmlns="http://www.w3.org/2000/svg" xml:space="preserve" width="3.30666in" height="1.06666in" version="1.1" style="shape-rendering:geometricPrecision; text-rendering:geometricPrecision; image-rendering:optimizeQuality; fill-rule:evenodd; clip-rule:evenodd"
viewBox="0 0 3307 1067"
 xmlns:xlink="http://www.w3.org/1999/xlink">
 <defs>
  <style type="text/css">
   <![CDATA[
    .fil0 {fill:#EEE5D9}
    .fil1 {fill:url(#id0)}
    .fil2 {fill:url(#id1)}
   ]]>
  </style>
  <linearGradient id="id0" gradientUnits="userSpaceOnUse" x1="-1719.28" y1="534.217" x2="1387.53" y2="534.217">
   <stop offset="0" style="stop-opacity:1; stop-color:#D9CAB4"/>
   <stop offset="0.701961" style="stop-opacity:1; stop-color:#CFB99B"/>
   <stop offset="1" style="stop-opacity:1; stop-color:#C4A881"/>
  </linearGradient>
  <linearGradient id="id1" gradientUnits="userSpaceOnUse" x1="-279.606" y1="957.846" x2="253.827" y2="310.106">
   <stop offset="0" style="stop-opacity:1; stop-color:white"/>
   <stop offset="0.709804" style="stop-opacity:1; stop-color:#E2D4C0"/>
   <stop offset="1" style="stop-opacity:1; stop-color:#C4A880"/>
  </linearGradient>
 </defs>
 <rect class="fil0" width="3307" height="1067"/>
 <g id="Layer_x0020_1">
  <metadata id="CorelCorpID_0Corel-Layer"/>
  <path class="fil1" d="M-710 242c187,-8 326,163 502,-22 839,-884 1218,-52 1218,-52 0,0 859,462 -14,654 -121,27 -149,70 -316,82 -625,46 -557,351 -557,351l-1267 -360c-160,-95 -270,-273 -450,-303 -145,-25 -148,-246 -90,-444 824,-303 564,190 974,94z"/>
  <path class="fil2" d="M-177 407c254,29 804,-140 763,89 -82,317 -526,189 -616,376 -226,78 -389,-72 -584,-107 68,-251 236,-376 437,-358z"/>
 </g>
</svg>
