<?xml version="1.0" encoding="UTF-8"?>
<!DOCTYPE svg PUBLIC "-//W3C//DTD SVG 1.1//EN" "http://www.w3.org/Graphics/SVG/1.1/DTD/svg11.dtd">
<!-- Creator: CorelDRAW X7 -->
<svg xmlns="http://www.w3.org/2000/svg" xml:space="preserve" width="4.50666in" height="2.19666in" version="1.1" style="shape-rendering:geometricPrecision; text-rendering:geometricPrecision; image-rendering:optimizeQuality; fill-rule:evenodd; clip-rule:evenodd"
viewBox="0 0 4507 2197"
 xmlns:xlink="http://www.w3.org/1999/xlink">
 <defs>
  <style type="text/css">
   <![CDATA[
    .str1 {stroke:#3F3D56;stroke-width:10.4173}
    .str0 {stroke:black;stroke-width:6.94488}
    .fil2 {fill:none}
    .fil6 {fill:#2F2E41}
    .fil9 {fill:#3F3D56}
    .fil7 {fill:#A0616A}
    .fil5 {fill:#C5A880}
    .fil3 {fill:#F2F2F2}
    .fil8 {fill:black;fill-opacity:0.101961}
    .fil4 {fill:#C5A880;fill-opacity:0.301961}
    .fil0 {fill:url(#id0)}
    .fil1 {fill:url(#id1)}
   ]]>
  </style>
  <linearGradient id="id0" gradientUnits="userSpaceOnUse" x1="-194.469" y1="4108.7" x2="3924.5" y2="3233.19">
   <stop offset="0" style="stop-opacity:1; stop-color:#59321F"/>
   <stop offset="0.658824" style="stop-opacity:1; stop-color:#927154"/>
   <stop offset="1" style="stop-opacity:1; stop-color:#CCB18A"/>
  </linearGradient>
  <linearGradient id="id1" gradientUnits="userSpaceOnUse" x1="3274.4" y1="561" x2="4351.66" y2="2090.54">
   <stop offset="0" style="stop-opacity:1; stop-color:#59321E"/>
   <stop offset="0.780392" style="stop-opacity:1; stop-color:#8E6D4F"/>
   <stop offset="1" style="stop-opacity:1; stop-color:#C4A881"/>
  </linearGradient>
 </defs>
 <g id="Layer_x0020_1">
  <metadata id="CorelCorpID_0Corel-Layer"/>
  <path class="fil0 str0" d="M4215 3712c-474,311 -850,830 -1423,934 -508,38 -1063,90 -1430,-360 -657,-537 -1257,-397 -1667,0 -410,396 7,-1614 7,-1614l4507 7 6 1033z"/>
  <g id="_654358384">
   <path class="fil1" d="M2980 1748c429,-326 1356,54 1484,-950 127,-1004 344,407 344,407l-318 1009 -1517 -219 -155 -82 162 -165 0 0 0 0z"/>
   <g id="_646523920">
    <line class="fil2 str1" x1="2929" y1="1689" x2="3165" y2= "1689" />
    <path class="fil3" d="M3302 818l991 0c15,0 27,12 27,27l0 654c0,15 -12,27 -27,27l-991 0c-15,0 -28,-12 -28,-27l0 -654c0,-15 13,-27 28,-27z"/>
    <path class="fil2 str1" d="M3270 773l991 0c15,0 27,13 27,28l0 653c0,15 -12,27 -27,27l-991 0c-15,0 -28,-12 -28,-27l0 -653c0,-15 13,-28 28,-28z"/>
    <line class="fil2 str1" x1="3242" y1="841" x2="4288" y2= "841" />
    <path class="fil4" d="M3878 1000l265 0c5,0 10,5 10,10l0 24c0,6 -5,10 -10,10l-265 0c-6,0 -10,-4 -10,-10l0 -24c0,-5 4,-10 10,-10z"/>
    <path class="fil4" d="M3823 1122l374 0c6,0 11,5 11,10l0 16c0,5 -5,10 -11,10l-374 0c-6,0 -10,-5 -10,-10l0 -16c0,-5 4,-10 10,-10z"/>
    <path class="fil4" d="M3823 1219l374 0c6,0 11,4 11,10l0 15c0,6 -5,10 -11,10l-374 0c-6,0 -10,-4 -10,-10l0 -15c0,-6 4,-10 10,-10z"/>
    <path class="fil4" d="M3823 1315l374 0c6,0 11,5 11,10l0 16c0,5 -5,10 -11,10l-374 0c-6,0 -10,-5 -10,-10l0 -16c0,-5 4,-10 10,-10z"/>
    <path class="fil2 str1" d="M3892 986l265 0c6,0 10,5 10,10l0 24c0,6 -4,10 -10,10l-265 0c-6,0 -10,-4 -10,-10l0 -24c0,-5 4,-10 10,-10z"/>
    <path class="fil2 str1" d="M3837 1108l375 0c5,0 10,5 10,10l0 16c0,5 -5,10 -10,10l-375 0c-5,0 -10,-5 -10,-10l0 -16c0,-5 5,-10 10,-10z"/>
    <path class="fil2 str1" d="M3837 1205l375 0c5,0 10,4 10,10l0 15c0,6 -5,10 -10,10l-375 0c-5,0 -10,-4 -10,-10l0 -15c0,-6 5,-10 10,-10z"/>
    <path class="fil2 str1" d="M3837 1301l375 0c5,0 10,5 10,10l0 16c0,5 -5,10 -10,10l-375 0c-5,0 -10,-5 -10,-10l0 -16c0,-5 5,-10 10,-10z"/>
    <path class="fil4" d="M3343 816c0,-12 -9,-22 -21,-22 -12,0 -21,10 -21,22 0,12 9,21 21,21 12,0 21,-9 21,-21z"/>
    <path class="fil4" d="M3403 816c0,-12 -10,-22 -22,-22 -11,0 -21,10 -21,22 0,12 10,21 21,21 12,0 22,-9 22,-21z"/>
    <path class="fil4" d="M3462 816c0,-12 -9,-22 -21,-22 -12,0 -21,10 -21,22 0,12 9,21 21,21 12,0 21,-9 21,-21z"/>
    <circle class="fil2 str1" cx="3330" cy="807" r="21"/>
    <circle class="fil2 str1" cx="3390" cy="807" r="21"/>
    <circle class="fil2 str1" cx="3450" cy="807" r="21"/>
    <path class="fil5" d="M3573 1452c-4,-17 -5,-39 -3,-55 0,0 -18,-79 -33,-86l0 0c0,0 -7,9 -8,37 -1,28 -11,47 -11,47 0,0 4,35 2,57l53 0 0 0z"/>
    <path class="fil5" d="M3704 948l-327 0c0,0 0,0 0,0 -19,0 -34,15 -34,34l0 436c0,19 15,34 34,34 0,0 0,0 0,0l115 0c-4,-16 -9,-41 -4,-58l0 0 0 0c0,-1 0,-2 1,-3 1,-5 1,-10 1,-15 0,-5 0,-10 -1,-15 -4,-16 -6,-33 -6,-33 0,0 -2,-22 -1,-35 0,0 0,0 0,-1 0,0 0,0 0,0 0,0 5,-23 6,-37 1,-4 1,-8 2,-13 -2,0 -3,0 -5,-1 -16,-5 -21,-56 -21,-56l0 -51c0,0 -5,-25 13,-35 18,-11 25,-14 26,-14 0,0 0,0 0,0 2,-2 4,-4 5,-6 0,-1 0,-1 0,-2 0,-5 -4,-11 -8,-15 -3,-4 -7,-8 -10,-12 0,-1 0,-1 0,-2 0,0 0,0 0,0 0,-1 0,-1 0,-1 -454,-352 -680,-529 -680,-531 0,-3 0,-6 3,-7 1,0 3,0 4,-1 0,0 0,0 0,-1 0,0 0,0 0,0 0,0 0,0 0,0 0,0 0,0 0,0 0,0 0,0 0,0 0,-1 0,-2 0,-3 2,-4 7,-6 11,-7 4,-1 9,-1 12,-5 2,0 4,0 6,0 4,0 7,0 10,2 2,1 5,2 7,2 2,0 4,-2 7,-2 4,-1 7,2 9,5 0,0 0,0 0,0 0,3 -1,5 -2,7 -2,2 -4,3 -5,5 0,1 0,2 -1,3 0,0 0,0 0,1 0,0 0,0 0,0 4,5 7,11 7,18 0,13 -9,25 -21,29 0,0 0,0 0,0 0,1 0,1 0,1 0,4 1,7 4,9l26 11c0,0 16,-2 22,22 0,3 1,6 1,9 0,1 0,2 0,3 -1,4 0,10 4,18 7,13 5,43 -8,46 -13,3 -18,1 -18,1l0 1c0,5 2,54 9,60 2,1 2,2 0,3l0 0c0,0 0,0 0,1 0,3 2,17 6,24 6,9 5,60 5,60l4 31c0,0 -2,18 0,21 2,2 3,31 4,55l99 0c-47,71 -72,155 -72,240 0,240 194,434 433,434 146,0 281,-73 362,-194l0 -436c0,-19 -15,-34 -34,-34 0,0 0,0 0,0l0 0z"/>
    <path class="fil2 str1" d="M3343 909l327 0c19,0 34,16 34,34l0 437c0,18 -15,33 -34,33l-327 0c-19,0 -34,-15 -34,-33l0 -437c0,-18 15,-34 34,-34z"/>
    <path class="fil6" d="M3073 1093c0,0 -14,-4 -17,0 -2,5 4,36 4,36l29 1 -10 -25 -6 -12z"/>
    <path class="fil7" d="M2970 1347c0,0 27,58 7,56 -21,-2 -29,-56 -29,-56l22 0z"/>
    <path class="fil7" d="M3144 1341c0,0 -12,62 8,56 19,-7 14,-62 14,-62l-22 6z"/>
    <path class="fil7" d="M3067 1078c0,0 0,30 11,31 11,2 -7,17 -7,17l-20 4 -29 -2 -12 -16c0,0 22,-11 12,-44l45 10 0 0z"/>
    <path class="fil8" d="M3067 1078c0,0 0,30 11,31 11,2 -7,17 -7,17l-20 4 -29 -2 -12 -16c0,0 22,-11 12,-44l45 10 0 0z"/>
    <path class="fil6" d="M3119 1326c0,0 14,31 3,128 0,0 3,34 0,40 -2,7 -25,94 -25,94 0,0 -29,6 -33,-13 0,0 4,-28 4,-32 -1,-4 6,-51 6,-51l-14 -90 -10 81c0,0 0,24 -3,29 -4,5 0,109 0,109 0,0 9,16 -5,17 -14,0 -27,-1 -29,-11 -1,-10 -1,-20 -4,-26 -3,-6 -7,-76 -6,-100 0,-25 -21,-150 -14,-163 7,-13 130,-12 130,-12l0 0z"/>
    <circle class="fil7" cx="3051" cy="1053" r="37"/>
    <path class="fil3" d="M3015 1112c0,0 22,17 54,4 0,0 11,-5 10,-13 -1,-8 22,63 22,63l24 125 -1 51c0,0 -11,-5 -43,6 -32,12 -85,-13 -85,-13l2 -131 1 -76 5 -17c0,0 3,-4 11,1l0 0z"/>
    <path class="fil6" d="M3068 1092c0,0 5,-1 10,7 6,8 18,14 18,14 0,0 29,1 34,17 4,16 15,38 20,78 5,40 15,103 17,109 1,5 -2,21 2,26 4,4 -30,4 -30,4 0,0 -3,-25 -5,-25 -2,0 -2,17 0,29 2,13 -15,0 -15,0 0,0 -14,-55 -27,-106 -13,-50 -21,-78 -18,-89 2,-11 9,-44 4,-47 -5,-3 -10,-17 -10,-17z"/>
    <path class="fil6" d="M3024 1092c0,0 -8,4 -28,19 -20,14 -34,25 -34,25 0,0 -8,6 -13,42 -5,37 -16,130 -11,142 4,12 5,19 4,26 -2,7 32,7 32,5 1,-1 0,-29 1,-29 2,-1 10,16 11,30 2,15 20,26 24,26 3,0 24,-83 24,-139 1,-57 -6,-104 -12,-111 -5,-7 2,-36 2,-36l0 0z"/>
    <path class="fil9" d="M3078 1590c0,0 2,-6 11,-4 8,2 14,-6 14,-6 0,0 4,0 1,5 -3,6 -5,10 -5,10 0,0 18,42 6,52 -12,10 -25,4 -25,4 0,0 -14,-10 -13,-35 0,0 -1,-7 -8,-20 -7,-13 -13,-33 -4,-36 9,-4 11,-4 11,-4 0,0 -4,19 7,26l5 8 0 0z"/>
    <path class="fil9" d="M3021 1638c0,0 -8,-14 5,-16 12,-1 25,-2 24,4 0,7 -2,16 -2,16l2 7c0,0 1,18 3,20 2,2 14,20 -11,20 -25,0 -32,-2 -30,-8 2,-6 3,-35 3,-35l6 -8 0 0z"/>
    <path class="fil6" d="M3040 1024c0,0 17,4 26,6 8,2 8,-3 8,-3 0,0 11,1 11,0 -1,-1 4,-8 -2,-15 -6,-7 -5,-13 -5,-13l-5 0 -2 -2 -8 0c0,0 -7,-2 -23,0 -17,2 -40,3 -42,13 -2,10 -11,23 -8,29 4,5 23,29 25,39 2,10 10,12 10,6 -1,-6 -9,-28 -2,-29 8,-1 20,-20 17,-31z"/>
    <path class="fil2 str1" d="M4256 647c-12,1 -23,8 -28,20 -7,17 2,37 16,49 13,13 31,20 47,29 21,12 40,30 51,52 10,22 12,50 -1,71 -12,20 -33,32 -53,43"/>
    <ellipse class="fil5" cx="4274" cy="649" rx="25" ry="12"/>
    <ellipse class="fil5" cx="4294" cy="728" rx="25" ry="12"/>
    <ellipse class="fil5" cx="4249" cy="741" rx="25" ry="12"/>
    <ellipse class="fil5" cx="4320" cy="808" rx="25" ry="12"/>
    <ellipse class="fil5" cx="4369" cy="808" rx="25" ry="12"/>
   </g>
  </g>
 </g>
</svg>
